<?xml version="1.0" encoding="utf-8"?>
<!-- Generator: Adobe Illustrator 20.1.0, SVG Export Plug-In . SVG Version: 6.00 Build 0)  -->
<svg version="1.1" id="Layer_1" xmlns="http://www.w3.org/2000/svg" xmlns:xlink="http://www.w3.org/1999/xlink" x="0px" y="0px"
	 viewBox="0 0 35 35" style="enable-background:new 0 0 35 35;" xml:space="preserve">
<style type="text/css">
	.st0{fill:#ECCF47;}
	.st1{fill:#FFFFFF;}
</style>
<circle class="st0" cx="20.7" cy="18.6" r="6.5"/>
<path class="st0" d="M24.5,20.7l1.3,1.8l0,0c0.9-1.1,1.4-2.5,1.4-4c0-0.9-0.2-1.7-0.5-2.5c-0.4-0.8-0.8-1.5-1.4-2s-1.2-1-2-1.3
	s-1.6-0.5-2.5-0.5c-1.7,0-3.4,0.6-4.7,2.1l1.9,1.1"/>
<path class="st1" d="M24.5,20.7c-1.2-1.1-2.6-1.7-4.2-1.7h-0.4c-0.3-3-2.5-4.7-5.2-5.3c-0.6-0.2-1.2-0.2-1.8-0.2
	c-1.7,0-3.2,0.5-4.5,1.6s-2.1,2.4-2.5,4c-1.3,0.3-2.5,1-3.3,2.1c-0.9,1.1-1.3,2.3-1.3,3.7c0,1.1,0.3,2.1,0.8,3s1.2,1.7,2.2,2.3
	c0.9,0.5,1.9,0.9,3,0.9h13c1.1,0,2.1-0.4,3-0.9c0.9-0.5,1.6-1.3,2.2-2.2s0.8-1.9,0.8-3c0-0.8-0.2-1.6-0.5-2.4
	C25.5,22,24.5,20.7,24.5,20.7z"/>
<g>
	<path class="st0" d="M32.7,19.4h-2.6c-0.5,0-1-0.5-1-1s0.5-1,1-1h2.6c0.5,0,1,0.5,1,1C33.7,18.9,33.2,19.4,32.7,19.4z"/>
</g>
<g>
	<path class="st0" d="M13.3,11.9c-0.3,0-0.5-0.1-0.7-0.3l-0.8-0.8c-0.4-0.4-0.4-1,0-1.4c0.4-0.4,1-0.4,1.4,0l0.8,0.8
		c0.4,0.4,0.4,1,0,1.4C13.8,11.8,13.5,11.9,13.3,11.9z"/>
</g>
<g>
	<path class="st0" d="M29.2,27.9c-0.3,0-0.5-0.1-0.7-0.3l-0.8-0.8c-0.4-0.4-0.4-1,0-1.4s1-0.4,1.4,0l0.8,0.8c0.4,0.4,0.4,1,0,1.4
		C29.7,27.8,29.4,27.9,29.2,27.9z"/>
</g>
<g>
	<path class="st0" d="M21,10.1c-0.5,0-1-0.4-1-1l0-2.6c0-0.6,0.5-1,1-1s1,0.4,1,1l0,2.6C22,9.7,21.6,10.1,21,10.1z"/>
</g>
<g>
	<path class="st0" d="M27.4,12.9c-0.3,0-0.5-0.1-0.7-0.3c-0.4-0.4-0.4-1,0-1.4l1.8-1.8c0.4-0.4,1-0.4,1.4,0s0.4,1,0,1.4l-1.8,1.8
		C27.9,12.8,27.7,12.9,27.4,12.9z"/>
</g>
</svg>
