<?xml version="1.0" encoding="utf-8"?>
<!-- Generator: Adobe Illustrator 20.1.0, SVG Export Plug-In . SVG Version: 6.00 Build 0)  -->
<svg version="1.1" id="Layer_1" xmlns="http://www.w3.org/2000/svg" xmlns:xlink="http://www.w3.org/1999/xlink" x="0px" y="0px"
	 viewBox="0 0 35 35" style="enable-background:new 0 0 35 35;" xml:space="preserve">
<style type="text/css">
	.st0{fill:#F5F6F7;}
	.st1{fill:#FFFFFF;}
</style>
<path class="st0" d="M-2.1,8.9"/>
<path class="st1" d="M5.5,14.5c0-1.3,0.4-2.4,1.2-3.4s1.8-1.6,3-1.9C10,7.8,10.8,6.6,12,5.6s2.6-1.5,4.1-1.5s2.9,0.5,4,1.4
	c1.2,1,2,2.2,2.3,3.6h0.4c1.5,0,2.8,0.5,3.9,1.6s1.6,2.3,1.6,3.9c0,0,0,0,0,0.1v0.1c0,1.5-0.6,2.5-0.6,2.5c-0.5,0.8-1.1,1.5-1.9,2.1
	c-0.8,0.5-1.7,0.8-2.7,0.8h-2.6h-1.9h-7.8c-1.5-0.1-2.7-0.6-3.7-1.7C6,17.2,5.5,15.9,5.5,14.5"/>
<g>
	<path class="st1" d="M18.6,24.4c-0.1-1.1-0.6-1.8-1.7-3c0,0-1.8,1.8-1.8,3c0,1.3,0.9,1.7,1.7,1.7C17.5,26.1,18.7,25.6,18.6,24.4z"
		/>
</g>
<g>
	<path class="st1" d="M22.5,23.2c0-0.8-0.4-1.3-1.3-2.2c0,0-1.3,1.3-1.3,2.2c0,1,0.7,1.2,1.3,1.3C21.7,24.5,22.5,24.2,22.5,23.2z"/>
</g>
<g>
	<path class="st1" d="M13.8,23.2c0-0.8-0.4-1.3-1.3-2.2c0,0-1.3,1.3-1.3,2.2c0,1,0.7,1.2,1.3,1.3C13.1,24.5,13.9,24.2,13.8,23.2z"/>
</g>
</svg>
