<?xml version="1.0" encoding="utf-8"?>
<!-- Generator: Adobe Illustrator 20.1.0, SVG Export Plug-In . SVG Version: 6.00 Build 0)  -->
<svg version="1.1" id="Layer_1" xmlns="http://www.w3.org/2000/svg" xmlns:xlink="http://www.w3.org/1999/xlink" x="0px" y="0px"
	 viewBox="0 0 35 35" style="enable-background:new 0 0 35 35;" xml:space="preserve">
<style type="text/css">
	.st0{fill:#FFFFFF;}
</style>
<path class="st0" d="M28.9,12.2c-0.9-0.6-1.8-1-2.9-1.2c-0.5-0.1-1-0.1-1.6-0.1c-0.8-3.7-4-6.5-8-6.5c-3,0-5.5,1.5-6.9,3.8
	C8.9,9.1,8.6,10,8.4,11.1c-1.5,0.3-2.8,1.2-3.8,2.4C3.4,14.8,3,16.3,3,17.8c0,1.2,0.3,2.3,0.9,3.3s1.4,1.8,2.4,2.5s2.2,0.9,3.3,1H25
	c1.2,0,2.3-0.3,3.3-1l0.1-0.1c1.8-1.2,3.2-3.3,3.2-5.9C31.7,15.4,30.6,13.5,28.9,12.2z"/>
<path class="st0" d="M12.9,30c0,0,0-0.1,0-0.1c0-0.1,0-0.1,0-0.1l0.1-0.7c0.1-0.3,0.2-0.5,0.5-0.6c0.2-0.1,0.5-0.2,0.8-0.1
	c0.3,0.1,0.4,0.2,0.6,0.5c0.1,0.2,0.2,0.5,0.1,0.7l-0.2,0.7c-0.1,0.5-0.4,0.7-0.9,0.7c0,0-0.1,0-0.2,0c-0.1,0-0.1,0-0.1,0
	c-0.2-0.1-0.4-0.2-0.5-0.4C13,30.4,12.9,30.2,12.9,30z M14.1,27.3c-0.2-0.2-0.3-0.4-0.3-0.6c0-0.3,0.1-0.5,0.3-0.7
	c0.2-0.2,0.4-0.3,0.7-0.3c0.3,0,0.5,0.1,0.7,0.3c0.2,0.2,0.3,0.4,0.3,0.7c0,0.3-0.1,0.5-0.3,0.6c-0.2,0.2-0.4,0.3-0.7,0.3
	C14.4,27.6,14.2,27.5,14.1,27.3L14.1,27.3z M15.6,33.4c0,0,0-0.1,0-0.3l0.2-0.7c0.1-0.3,0.2-0.4,0.5-0.6c0.2-0.1,0.5-0.2,0.7-0.1
	c0.3,0,0.5,0.2,0.6,0.4c0.1,0.2,0.2,0.5,0.1,0.8l-0.2,0.7c-0.1,0.5-0.4,0.7-0.9,0.7c-0.1,0-0.2,0-0.3,0c-0.2-0.1-0.4-0.2-0.5-0.4
	C15.7,33.8,15.6,33.6,15.6,33.4z M16.8,30.8c-0.2-0.2-0.3-0.4-0.3-0.6c0-0.3,0.1-0.5,0.3-0.7s0.4-0.3,0.7-0.3c0.3,0,0.5,0.1,0.7,0.3
	c0.2,0.2,0.3,0.4,0.3,0.7c0,0.3-0.1,0.5-0.3,0.7c-0.2,0.2-0.4,0.3-0.7,0.3C17.2,31.1,17,31,16.8,30.8L16.8,30.8z M17.2,27.6
	c0-0.1,0-0.2,0-0.3l0.3-1c0.1-0.3,0.2-0.5,0.5-0.6c0.2-0.1,0.5-0.2,0.7-0.1c0.3,0.1,0.5,0.2,0.6,0.5c0.1,0.2,0.2,0.5,0.1,0.7l-0.3,1
	c-0.1,0.3-0.2,0.5-0.5,0.6s-0.5,0.1-0.7,0.1c-0.2,0-0.4-0.2-0.5-0.3C17.2,28,17.2,27.8,17.2,27.6z M20.3,30c0,0,0-0.1,0-0.2
	c0-0.1,0-0.1,0-0.1l0.1-0.7c0.1-0.3,0.2-0.5,0.5-0.6c0.2-0.1,0.5-0.2,0.8-0.1c0.3,0.1,0.4,0.2,0.6,0.5c0.1,0.2,0.2,0.5,0.1,0.7
	l-0.2,0.7C22,30.7,21.8,31,21.3,31c0,0-0.1,0-0.2,0c-0.1,0-0.1,0-0.2,0c-0.2-0.1-0.4-0.2-0.5-0.4C20.4,30.4,20.3,30.2,20.3,30z
	 M21.4,27.3c-0.2-0.2-0.3-0.4-0.3-0.6c0-0.3,0.1-0.5,0.3-0.7c0.2-0.2,0.4-0.3,0.7-0.3c0.3,0,0.5,0.1,0.7,0.3
	c0.2,0.2,0.3,0.4,0.3,0.7c0,0.3-0.1,0.5-0.3,0.7c-0.2,0.2-0.4,0.3-0.7,0.3C21.8,27.6,21.6,27.5,21.4,27.3L21.4,27.3z"/>
</svg>
