<?xml version="1.0" encoding="utf-8"?>
<!-- Generator: Adobe Illustrator 20.1.0, SVG Export Plug-In . SVG Version: 6.00 Build 0)  -->
<svg version="1.1" id="Layer_1" xmlns="http://www.w3.org/2000/svg" xmlns:xlink="http://www.w3.org/1999/xlink" x="0px" y="0px"
	 viewBox="0 0 35 35" style="enable-background:new 0 0 35 35;" xml:space="preserve">
<style type="text/css">
	.st0{fill:#ECCF47;}
</style>
<g>
	<g>
		<path class="st0" d="M17.5,9.8c-4.3,0-7.7,3.4-7.7,7.7s3.4,7.7,7.7,7.7s7.7-3.4,7.7-7.7C25.2,13.2,21.8,9.8,17.5,9.8L17.5,9.8z"/>
	</g>
	<g>
		<g>
			<path class="st0" d="M17.5,7.9c-0.6,0-1-0.5-1-1V3.3c0-0.6,0.5-1,1-1c0.6,0,1,0.5,1,1v3.6C18.5,7.4,18.1,7.9,17.5,7.9z"/>
		</g>
		<g>
			<path class="st0" d="M31.8,18.5h-3.6c-0.6,0-1-0.5-1-1c0-0.6,0.5-1,1-1h3.6c0.6,0,1,0.5,1,1C32.8,18,32.4,18.5,31.8,18.5z"/>
		</g>
		<g>
			<path class="st0" d="M6.8,18.5H3.2c-0.6,0-1-0.5-1-1c0-0.6,0.5-1,1-1h3.6c0.6,0,1,0.5,1,1C7.8,18.1,7.4,18.5,6.8,18.5z"/>
		</g>
		<g>
			<path class="st0" d="M25.1,10.9c-0.3,0-0.5-0.1-0.7-0.3c-0.4-0.4-0.4-1,0-1.4L27,6.6c0.4-0.4,1-0.4,1.4,0c0.4,0.4,0.4,1,0,1.4
				l-2.6,2.6C25.7,10.8,25.4,10.9,25.1,10.9z"/>
		</g>
		<g>
			<path class="st0" d="M9.9,11c-0.3,0-0.5-0.1-0.7-0.3L6.7,8.2c-0.4-0.4-0.4-1,0-1.4c0.4-0.4,1-0.4,1.4,0l2.6,2.6
				c0.4,0.4,0.4,1,0,1.4C10.5,10.9,10.2,11,9.9,11z"/>
		</g>
		<g>
			<path class="st0" d="M17.5,32.8c-0.6,0-1-0.5-1-1v-3.6c0-0.6,0.5-1,1-1c0.6,0,1,0.5,1,1v3.6C18.5,32.3,18,32.8,17.5,32.8z"/>
		</g>
		<g>
			<path class="st0" d="M27.7,28.7c-0.3,0-0.5-0.1-0.7-0.3l-2.6-2.6c-0.4-0.4-0.4-1,0-1.4s1-0.4,1.4,0l2.6,2.6c0.4,0.4,0.4,1,0,1.4
				C28.2,28.6,27.9,28.7,27.7,28.7z"/>
		</g>
		<g>
			<path class="st0" d="M7.4,28.6c-0.3,0-0.5-0.1-0.7-0.3c-0.4-0.4-0.4-1,0-1.4l2.6-2.6c0.4-0.4,1-0.4,1.4,0s0.4,1,0,1.4l-2.6,2.6
				C7.9,28.5,7.6,28.6,7.4,28.6z"/>
		</g>
	</g>
</g>
</svg>
